<?xml version="1.0" encoding="UTF-8"?>
<!DOCTYPE svg PUBLIC "-//W3C//DTD SVG 1.1//EN" "http://www.w3.org/Graphics/SVG/1.1/DTD/svg11.dtd">
<!-- Creator: CorelDRAW 2019 (64 Bit) -->
<svg xmlns="http://www.w3.org/2000/svg" xml:space="preserve" width="150.5mm" height="24.663mm" version="1.1" style="shape-rendering:geometricPrecision; text-rendering:geometricPrecision; image-rendering:optimizeQuality; fill-rule:evenodd; clip-rule:evenodd"
viewBox="0 0 15050 2466.3"
 xmlns:xlink="http://www.w3.org/1999/xlink">
 <defs>
  <style type="text/css">
   <![CDATA[
    .fil2 {fill:#008F4F}
    .fil1 {fill:#284B8C}
    .fil0 {fill:#FFCC29}
    .fil3 {fill:#284B8C;fill-rule:nonzero}
   ]]>
  </style>
 </defs>
 <g id="Camada_x0020_1">
  <metadata id="CorelCorpID_0Corel-Layer"/>
  <g id="_1711597677248">
   <path class="fil0" d="M1169.69 697.74l0.22 -208.77 174.68 40.71 99.96 -143.33 220.96 97.52 -30.61 142.65 178.26 147.65 137.56 -50.91 121.21 168.38 -105.91 101.62 61.12 229.18 152.86 35.72 -5.1 218.98 -127.35 25.51 -86.63 229.22 102.01 96.66 -117.32 183.51 -137.44 -61.12 -173.27 142.58 25.51 152.86 -224.19 76.43 -86.53 -122.28 -182.26 25.44 2.02 -193.57c405.32,-31.57 611.26,-270.6 666.74,-548.62l-398.97 -89.85c-11.56,124.44 -128.27,231.91 -255.69,231.91l-2.41 -16.13 2.41 -503.26c125.79,-1.59 241.51,94.96 255.15,217.14l394.94 -65.55c-43.65,-295.38 -298.81,-548.73 -661.93,-560.28z"/>
   <path class="fil1" d="M1181.53 288.17c1.88,0 3.68,0 5.49,0.07l0.74 -1.49 25.48 1.42 -2.3 185.1 139.18 15.98 85.36 -132.31 248.99 102.76 -25.12 151.52 152.57 130.5 146.31 -57.48 142.33 210.3 -103.85 120.47 60.13 190.03 153.85 29.49 0 259.19 -153.85 31.57 -60.13 187.91 103.85 120.43 -142.33 210.37 -146.31 -57.51 -152.57 130.58 25.12 151.47 -248.99 102.76 -85.36 -132.38 -146.38 22.22 -1.27 138.9 -38.41 0.21 -0.74 -182.62 210.5 -36.15 77.32 121.86 176.49 -70.05 -29.62 -137.52 200.02 -168.45 132.31 55.7 102.76 -153.21 -104.28 -105.31 81.6 -239.46 142.8 -27.25 0 -188.47 -142.8 -26.08 -81.6 -239.56 104.28 -105.31 -102.76 -153.22 -132.31 55.74 -200.02 -168.38 29.62 -137.55 -176.49 -70.12 -77.32 121.96 -208.7 -29.27 1.95 -185.92c-243.32,3.37 -466.23,90.82 -641.2,234.53 6.77,12.97 10.59,27.68 10.59,43.27 0,51.73 -42.02,93.68 -93.68,93.68 -16.34,0 -31.71,-4.21 -45.14,-11.55 -138.23,160.73 -227.95,364.4 -246.16,588.3 34.8,13.72 59.39,47.63 59.39,87.28 0,39.54 -24.52,73.34 -59.18,87.09 20.27,237.05 120.69,451.35 273.9,615.59 12.69,-6.31 26.93,-9.89 42.03,-9.89 51.73,0 93.65,41.92 93.65,93.65 0,11.87 -2.16,23.21 -6.13,33.63 173.83,132.66 392.99,206.26 612,211.18 10.7,0.25 26.47,-1.34 37.21,-1.41l-1.67 41.63c-11.09,0.43 -23.84,2.3 -34.94,2.3 -225.92,0.32 -456.45,-80.68 -637.12,-217.95 -16.66,15.1 -38.73,24.31 -63,24.31 -51.7,0 -93.69,-41.92 -93.69,-93.69 0,-20.9 6.91,-40.25 18.53,-55.84 -158.31,-170.33 -262.13,-392.04 -283.64,-637.38 -47.8,-4.18 -85.29,-44.4 -85.29,-93.22 0,-48.83 37.35,-88.94 84.97,-93.3 19.59,-232.73 113.1,-444.37 257.03,-611.4 -10.34,-15.06 -16.44,-33.38 -16.44,-53.01 0,-51.77 41.96,-93.69 93.69,-93.69 20.48,0 39.36,6.52 54.81,17.72 186.03,-153.25 424.21,-245.27 683.94,-245.27z"/>
   <path class="fil1" d="M950.47 1281.19c33.06,14.46 56.23,47.48 56.23,85.93 0,37.88 -22.57,70.51 -54.96,85.29 35.22,92.62 124.87,158.45 229.79,158.45 135.74,0 245.83,-110.02 245.83,-245.76 0,-135.75 -110.09,-245.77 -245.83,-245.77 -106.27,0 -196.8,67.43 -231.06,161.86zm-41.64 179.47c-49.82,-2.2 -89.47,-43.26 -89.47,-93.54 0,-49.86 38.91,-90.68 88.06,-93.51 38.3,-114.77 146.55,-197.47 274.11,-197.47 135.46,0 249.06,93.22 280.42,218.91l345.08 -61.13c-60.52,-289.95 -317.62,-507.72 -625.5,-507.72 -166.04,0 -317.41,63.35 -431.01,167.31 9.28,14.53 14.6,31.72 14.6,50.25 0,51.73 -41.92,93.68 -93.65,93.68 -12.16,0 -23.85,-2.33 -34.52,-6.55 -45.88,74.55 -76.85,159.24 -88.79,249.91 33.59,14.25 57.15,47.48 57.15,86.32 0,38.55 -23.31,71.71 -56.62,86.03 13.71,99.74 50.53,192.23 104.85,271.74 14.7,-9.53 32.17,-15.1 50.98,-15.1 51.7,0 93.69,42.03 93.69,93.69 0,21.69 -7.37,41.56 -19.67,57.37 109.95,89.47 250.2,143.18 402.99,143.18 306.6,0 562.79,-216 624.69,-504.14l-344.87 -62.33c-32.18,124.51 -145.28,216.53 -279.82,216.53 -126.07,0 -233.26,-80.86 -272.7,-193.43zm272.7 -778.65c336.01,-13.29 628.27,254.48 685.35,583.73l-398.34 69.2c1.52,20.87 -0.29,41.71 -2.52,62.58l390.73 71.61c-50.11,327.83 -333.36,579.09 -675.22,579.09 -166.86,0 -319.72,-59.95 -438.38,-159.38 -11.77,5.39 -24.88,8.33 -38.63,8.33 -51.73,0 -93.68,-41.96 -93.68,-93.69 0,-16.58 4.29,-32.1 11.87,-45.6 -60.91,-86.46 -102.23,-187.73 -117.6,-297.36 -48.69,-3.33 -87.17,-43.9 -87.17,-93.4 0,-49.43 38.27,-89.83 86.63,-93.44 13.29,-97.58 47.34,-187.8 97.66,-266.85 -15.24,-16.65 -24.45,-38.76 -24.45,-63.07 0,-51.77 41.92,-93.69 93.69,-93.69 18.81,0 36.42,5.57 51.13,15.17 121.28,-108.68 282.36,-176.25 458.93,-183.23z"/>
   <path class="fil2" d="M1217.6 1008.64l0 1435.27 -74.16 0 0 -1435.41c-252.15,-66.69 -419.92,-264.48 -285.77,-538.38 75.08,147.76 134.86,267.17 266.35,348.1 -59.63,-360.4 -53.26,-572.71 55.42,-790.67 112.57,232.34 115.86,448.52 50.24,794.49 135.82,-81 196.34,-201.82 272.63,-351.92 144.07,294.24 -41.18,451.14 -284.71,538.52z"/>
   <circle class="fil1" cx="1179.9" cy="1360" r="92.76"/>
   <path class="fil3" d="M7130.22 919.17l53.86 0 0 239.32c0,41.7 7.72,70.33 23.31,85.78 15.45,15.63 37.21,23.35 65.13,23.35 17.54,0 32.39,-3.01 44.47,-9.11 12.15,-5.98 21.58,-15.87 28.27,-29.51 6.67,-13.75 9.96,-36.61 9.96,-68.71l0 -241.12 47.2 0 0 240.34c0,41.21 -5.1,70.9 -15.24,89.05 -10.13,18.21 -24.59,32.63 -43.05,43.26 -18.53,10.74 -43.12,16.05 -73.74,16.05 -32.59,0 -58.92,-5.53 -79.19,-16.65 -20.09,-11.09 -35.33,-26.33 -45.6,-45.67 -10.21,-19.28 -15.38,-48.51 -15.38,-87.6l0 -238.78zm366.84 379.28l0 -379.28 52.73 0 190.8 292.86 0 -292.86 46.03 0 0 379.28 -52.4 0 -191.13 -292.97 0 292.97 -46.03 0zm387.54 0l0 -379.28 53.75 0 0 379.28 -53.75 0zm254.83 0l-143.11 -379.28 53.93 0 117.32 310.57 113.31 -310.57 47.09 0 -137.69 379.28 -50.85 0zm239.78 0l0 -379.28 212.46 0 0 40.18 -158.6 0 0 121.82 133.05 0 0 39.65 -133.05 0 0 137.34 169.62 0 0 40.29 -223.48 0zm284.46 0l0 -379.28 114.91 0c42.52,0 71.86,9.49 88.12,28.56 16.19,18.99 24.38,40.89 24.38,65.48 0,14.31 -2.94,28.49 -8.61,42.52 -5.78,14.03 -13.89,26.47 -24.45,37.42 -10.59,10.87 -25.05,20.19 -43.37,27.67l126.53 177.63 -66.01 0 -108 -160.45 -50.17 0 0 160.45 -53.33 0zm53.33 -200.73l17.39 0c39.76,0 66.76,-8.22 80.65,-24.81 13.93,-16.58 20.91,-34.79 20.91,-54.6 0,-11.76 -2.63,-22.15 -7.8,-30.83 -5.24,-8.86 -13.36,-15.66 -24.38,-20.69 -11.02,-4.96 -28.7,-7.44 -52.94,-7.44l-33.83 0 0 138.37zm255.22 193.5l0 -53.26c30.62,14.03 53.05,22.43 67.15,25.3 13.99,2.91 27.14,4.36 39.22,4.36 21.83,0 39.16,-5.95 51.74,-17.86 12.68,-11.8 18.99,-26.04 18.99,-42.59 0,-12.47 -3.4,-24.02 -9.99,-34.58 -6.74,-10.42 -23.57,-23.11 -50.18,-38.2l-26.25 -15.13c-35.01,-19.74 -58.58,-37.88 -70.66,-54.32 -11.97,-16.33 -18,-34.55 -18,-54.6 0,-17.9 4.82,-34.73 14.35,-50.46 9.5,-15.77 22.25,-27.99 38.38,-36.89 16.12,-8.85 36.32,-13.28 60.77,-13.28 29.48,0 60.44,4.89 93.15,14.63l0 49.18c-28.42,-11.09 -48.01,-17.86 -58.57,-20.09 -10.6,-2.41 -21.16,-3.54 -31.68,-3.54 -22.04,0 -38.37,5.7 -48.97,17.18 -10.56,11.48 -15.87,23.18 -15.87,35.12 0,8.15 2.51,16.47 7.47,24.98 5.04,8.47 11.87,15.73 20.2,21.83 8.54,5.98 20.16,13.25 34.94,21.57l27.35 15.38c35.33,20.02 58.96,38.34 70.9,54.82 11.77,16.72 17.69,36 17.69,57.68 0,29.56 -11.24,55.21 -33.81,76.89 -22.67,21.65 -55.88,32.53 -99.92,32.53 -13.57,0 -26.68,-0.88 -39.37,-2.69 -12.75,-1.81 -32.38,-6.38 -59.03,-13.96zm305.72 7.23l0 -379.28 53.82 0 0 379.28 -53.82 0zm151.48 0l0 -379.28 126.07 0c48.76,0 85.57,7.05 110.73,21.15 25.05,14.07 44.75,34.62 59,61.73 14.28,27.07 21.47,59.67 21.47,97.72 0,36.14 -6.63,69.2 -19.67,99.22 -12.97,30.08 -32.84,54.14 -59.52,72.21 -26.72,18.14 -63.68,27.25 -111.16,27.25l-126.92 0zm53.86 -40.29l68.92 0c35.85,0 62.71,-5.63 80.57,-17.04 17.82,-11.38 31.86,-29.31 41.92,-54 10.03,-24.52 15.06,-51.88 15.06,-82.17 0,-26.72 -4.36,-50.96 -12.97,-72.93 -8.79,-21.89 -22.89,-39.58 -42.38,-52.79 -19.42,-13.18 -55.13,-19.88 -106.8,-19.88l-44.32 0 0 298.81zm294.66 40.29l150.45 -379.28 53.12 0 148.28 379.28 -58.14 0 -41.39 -105.1 -160.72 0 -41.64 105.1 -49.96 0zm107.4 -145.07l129.15 0 -64.27 -163.49 -64.88 163.49zm299.41 145.07l0 -379.28 126 0c48.76,0 85.57,7.05 110.7,21.15 25.05,14.07 44.78,34.62 59.03,61.73 14.24,27.07 21.44,59.67 21.44,97.72 0,36.14 -6.6,69.2 -19.63,99.22 -12.97,30.08 -32.85,54.14 -59.57,72.21 -26.68,18.14 -63.67,27.25 -111.15,27.25l-126.82 0zm53.79 -40.29l68.92 0c35.86,0 62.68,-5.63 80.54,-17.04 17.86,-11.38 31.89,-29.31 41.91,-54 10.07,-24.52 15.17,-51.88 15.17,-82.17 0,-26.72 -4.43,-50.96 -13.04,-72.93 -8.79,-21.89 -22.89,-39.58 -42.38,-52.79 -19.41,-13.18 -55.06,-19.88 -106.79,-19.88l-44.33 0 0 298.81zm339.27 40.29l0 -379.28 212.5 0 0 40.18 -158.71 0 0 121.82 133.05 0 0 39.65 -133.05 0 0 137.34 169.73 0 0 40.29 -223.52 0zm450.54 0l0 -379.28 215.33 0 0 40.18 -161.54 0 0 127.13 136.2 0 0 39.69 -136.2 0 0 172.28 -53.79 0zm281.41 0l0 -379.28 212.46 0 0 40.18 -158.71 0 0 121.82 133.05 0 0 39.65 -133.05 0 0 137.34 169.73 0 0 40.29 -223.48 0zm284.46 0l0 -379.28 126.07 0c48.69,0 85.5,7.05 110.62,21.15 25.16,14.07 44.79,34.62 59.04,61.73 14.24,27.07 21.47,59.67 21.47,97.72 0,36.14 -6.56,69.2 -19.6,99.22 -13.04,30.08 -32.91,54.14 -59.52,72.21 -26.72,18.14 -63.78,27.25 -111.23,27.25l-126.85 0zm53.79 -40.29l68.91 0c35.93,0 62.79,-5.63 80.65,-17.04 17.75,-11.38 31.78,-29.31 41.85,-54 10.03,-24.52 15.13,-51.88 15.13,-82.17 0,-26.72 -4.36,-50.96 -13.04,-72.93 -8.72,-21.89 -22.82,-39.58 -42.31,-52.79 -19.42,-13.18 -55.13,-19.88 -106.8,-19.88l-44.39 0 0 298.81zm339.38 40.29l0 -379.28 212.46 0 0 40.18 -158.71 0 0 121.82 133.05 0 0 39.65 -133.05 0 0 137.34 169.73 0 0 40.29 -223.48 0zm284.46 0l0 -379.28 114.84 0c42.52,0 71.93,9.49 88.19,28.56 16.12,18.99 24.31,40.89 24.31,65.48 0,14.31 -2.94,28.49 -8.54,42.52 -5.78,14.03 -13.96,26.47 -24.56,37.42 -10.56,10.87 -25.05,20.19 -43.26,27.67l126.46 177.63 -65.94 0 -108.07 -160.45 -50.18 0 0 160.45 -53.25 0zm53.25 -200.73l17.4 0c39.83,0 66.76,-8.22 80.65,-24.81 13.92,-16.58 20.9,-34.79 20.9,-54.6 0,-11.76 -2.62,-22.15 -7.79,-30.83 -5.25,-8.86 -13.36,-15.66 -24.38,-20.69 -11.02,-4.96 -28.74,-7.44 -52.94,-7.44l-33.84 0 0 138.37zm234 200.73l150.45 -379.28 53.12 0 148.25 379.28 -58.18 0 -41.42 -105.1 -160.66 0 -41.59 105.1 -49.97 0zm107.4 -145.07l129.16 0 -64.35 -163.49 -64.81 163.49zm299.34 145.07l0 -379.28 53.83 0 0 338.99 168.45 0 0 40.29 -222.28 0zm445.86 0l0 -379.28 114.91 0c42.45,0 71.86,9.49 88.12,28.56 16.2,18.99 24.31,40.89 24.31,65.48 0,14.31 -2.87,28.49 -8.57,42.52 -5.78,14.03 -13.86,26.47 -24.45,37.42 -10.63,10.87 -25.05,20.19 -43.34,27.67l126.54 177.63 -66.02 0 -108 -160.45 -50.24 0 0 160.45 -53.26 0zm53.26 -200.73l17.4 0c39.82,0 66.75,-8.22 80.68,-24.81 13.89,-16.58 20.94,-34.79 20.94,-54.6 0,-11.76 -2.62,-22.15 -7.8,-30.83 -5.24,-8.86 -13.43,-15.66 -24.45,-20.69 -10.94,-4.96 -28.66,-7.44 -52.86,-7.44l-33.91 0 0 138.37zm275.46 -178.55l53.86 0 0 239.32c0,41.7 7.72,70.33 23.31,85.78 15.45,15.63 37.21,23.35 65.13,23.35 17.54,0 32.38,-3.01 44.47,-9.11 12.15,-5.98 21.57,-15.87 28.27,-29.51 6.66,-13.75 9.96,-36.61 9.96,-68.71l0 -241.12 47.2 0 0 240.34c0,41.21 -5.11,70.9 -15.24,89.05 -10.13,18.21 -24.59,32.63 -43.05,43.26 -18.53,10.74 -43.12,16.05 -73.74,16.05 -32.6,0 -58.92,-5.53 -79.19,-16.65 -20.09,-11.09 -35.33,-26.33 -45.61,-45.67 -10.2,-19.28 -15.37,-48.51 -15.37,-87.6l0 -238.78zm366.84 379.28l0 -379.28 114.8 0c42.56,0 71.93,9.49 88.23,28.56 16.19,18.99 24.27,40.89 24.27,65.48 0,14.31 -2.83,28.49 -8.54,42.52 -5.77,14.03 -13.96,26.47 -24.52,37.42 -10.56,10.87 -24.98,20.19 -43.26,27.67l126.43 177.63 -65.91 0 -108 -160.45 -50.25 0 0 160.45 -53.25 0zm53.25 -200.73l17.4 0c39.83,0 66.76,-8.22 80.61,-24.81 13.96,-16.58 20.94,-34.79 20.94,-54.6 0,-11.76 -2.62,-22.15 -7.79,-30.83 -5.28,-8.86 -13.36,-15.66 -24.38,-20.69 -11.02,-4.96 -28.74,-7.44 -52.97,-7.44l-33.81 0 0 138.37zm234.01 200.73l150.45 -379.28 53.08 0 148.28 379.28 -58.21 0 -41.32 -105.1 -160.72 0 -41.64 105.1 -49.92 0zm107.39 -145.07l129.16 0 -64.38 -163.49 -64.78 163.49zm299.31 145.07l0 -379.28 53.86 0 0 338.99 168.45 0 0 40.29 -222.31 0zm-7667.85 597.58l0 -379.28 126.08 0c48.75,0 85.57,7.12 110.62,21.16 25.12,14.1 44.79,34.65 59.1,61.79 14.25,27 21.37,59.64 21.37,97.73 0,36.07 -6.52,69.16 -19.56,99.14 -13.04,30.08 -32.85,54.14 -59.57,72.32 -26.68,18.07 -63.67,27.14 -111.22,27.14l-126.82 0zm53.86 -40.21l68.92 0c35.86,0 62.72,-5.67 80.54,-17.08 17.86,-11.34 31.82,-29.27 41.88,-53.93 10.1,-24.59 15.13,-51.98 15.13,-82.28 0,-26.61 -4.36,-50.85 -13.04,-72.82 -8.71,-21.96 -22.82,-39.68 -42.3,-52.9 -19.42,-13.18 -55.14,-19.77 -106.8,-19.77l-44.33 0 0 298.78zm494.26 49.67c-35.86,0 -67.07,-8.04 -93.68,-24.09 -26.47,-16.05 -47.09,-39.51 -61.73,-70.27 -14.63,-30.89 -21.9,-65.76 -21.9,-104.7 0,-37.67 7.05,-71.86 20.91,-102.62 13.96,-30.9 34.51,-54.67 61.58,-71.4 27.25,-16.72 58.82,-25.12 94.82,-25.12 36.07,0 67.64,8.4 94.86,25.12 27.07,16.73 47.62,40.5 61.58,71.4 13.89,30.76 20.94,64.95 20.94,102.62 0,37.42 -6.98,71.47 -20.73,102.08 -13.71,30.69 -33.94,54.43 -60.94,71.54 -26.93,16.94 -58.75,25.44 -95.71,25.44zm0 -40.21c38.23,0 67.93,-14.25 88.8,-42.84 20.9,-28.49 31.43,-67.33 31.43,-116.54 0,-48.97 -10.6,-87.67 -31.68,-115.94 -21.05,-28.21 -50.53,-42.38 -88.55,-42.38 -37.95,0 -67.43,14.17 -88.51,42.38 -21.08,28.27 -31.64,66.97 -31.64,115.94 0,49.21 10.49,88.05 31.43,116.54 20.83,28.59 50.52,42.84 88.72,42.84zm418.79 30.75l0 -379.28 114.84 0c42.52,0 71.89,9.53 88.19,28.6 16.19,18.95 24.31,40.85 24.31,65.44 0,14.35 -2.87,28.53 -8.58,42.63 -5.77,13.93 -13.92,26.4 -24.52,37.35 -10.55,10.95 -24.98,20.16 -43.26,27.74l126.46 177.52 -65.94 0 -108 -160.44 -50.25 0 0 160.44 -53.25 0zm53.25 -200.62l17.4 0c39.83,0 66.76,-8.33 80.68,-24.91 13.89,-16.58 20.87,-34.8 20.87,-54.53 0,-11.84 -2.62,-22.11 -7.72,-30.9 -5.24,-8.82 -13.43,-15.66 -24.45,-20.62 -11.02,-5.04 -28.66,-7.41 -52.97,-7.41l-33.81 0 0 138.37zm278.33 200.62l0 -379.28 53.86 0 0 379.28 -53.86 0zm306.5 9.46c-35.82,0 -67.04,-8.04 -93.65,-24.09 -26.47,-16.05 -47.2,-39.51 -61.72,-70.27 -14.64,-30.89 -21.9,-65.76 -21.9,-104.7 0,-37.67 6.98,-71.86 20.9,-102.62 13.89,-30.9 34.45,-54.67 61.59,-71.4 27.21,-16.72 58.82,-25.12 94.78,-25.12 36.11,0 67.68,8.4 94.89,25.12 27.07,16.73 47.63,40.5 61.59,71.4 13.85,30.76 20.83,64.95 20.83,102.62 0,37.42 -6.87,71.47 -20.62,102.08 -13.71,30.69 -34.05,54.43 -60.98,71.54 -26.93,16.94 -58.79,25.44 -95.71,25.44zm0 -40.21c38.27,0 67.89,-14.25 88.83,-42.84 20.91,-28.49 31.4,-67.33 31.4,-116.54 0,-48.97 -10.56,-87.67 -31.64,-115.94 -21.09,-28.21 -50.6,-42.38 -88.59,-42.38 -37.95,0 -67.39,14.17 -88.47,42.38 -21.09,28.27 -31.65,66.97 -31.65,115.94 0,49.21 10.49,88.05 31.33,116.54 20.94,28.59 50.63,42.84 88.79,42.84zm418.82 30.75l0 -379.28 126.01 0c48.75,0 85.57,7.12 110.69,21.16 25.05,14.1 44.79,34.65 59.03,61.79 14.25,27 21.44,59.64 21.44,97.73 0,36.07 -6.59,69.16 -19.63,99.14 -13.01,30.08 -32.85,54.14 -59.57,72.32 -26.61,18.07 -63.67,27.14 -111.15,27.14l-126.82 0zm53.79 -40.21l68.92 0c35.82,0 62.68,-5.67 80.54,-17.08 17.86,-11.34 31.89,-29.27 41.92,-53.93 10.06,-24.59 15.16,-51.98 15.16,-82.28 0,-26.61 -4.43,-50.85 -13.07,-72.82 -8.75,-21.96 -22.86,-39.68 -42.34,-52.9 -19.46,-13.18 -55.07,-19.77 -106.84,-19.77l-44.29 0 0 298.78zm339.28 40.21l0 -379.28 212.49 0 0 40.29 -158.71 0 0 121.71 133.06 0 0 39.76 -133.06 0 0 137.31 169.73 0 0 40.21 -223.51 0zm354.37 70.41l0 -47.62c20.48,6.69 38.79,10.06 54.85,10.06 10.95,0 20.3,-2.02 28.2,-6.06 7.87,-4 14.25,-10.67 19.1,-19.95 4.89,-9.39 7.3,-26.93 7.3,-52.9l0 -333.22 53.82 0 0 331.34c0,43.58 -10.27,75.08 -30.65,94.57 -20.34,19.53 -49.21,29.27 -86.49,29.27 -11.91,0 -27.28,-1.88 -46.13,-5.49zm214.72 -70.41l150.52 -379.28 53.12 0 148.29 379.28 -58.22 0 -41.39 -105.06 -160.65 0 -41.71 105.06 -49.96 0zm107.51 -145.06l129.04 0 -64.27 -163.42 -64.77 163.42zm299.3 145.06l0 -379.28 52.73 0 190.81 292.9 0 -292.9 46.13 0 0 379.28 -52.51 0 -191.02 -292.96 0 292.96 -46.14 0zm387.75 0l0 -379.28 212.49 0 0 40.29 -158.63 0 0 121.71 133.05 0 0 39.76 -133.05 0 0 137.31 169.65 0 0 40.21 -223.51 0zm284.25 0l0 -379.28 53.78 0 0 379.28 -53.78 0zm151.51 0l0 -379.28 114.8 0c42.56,0 71.93,9.53 88.23,28.6 16.19,18.95 24.27,40.85 24.27,65.44 0,14.35 -2.83,28.53 -8.54,42.63 -5.77,13.93 -13.85,26.4 -24.52,37.35 -10.56,10.95 -24.98,20.16 -43.26,27.74l126.53 177.52 -66.01 0 -108 -160.44 -50.25 0 0 160.44 -53.25 0zm53.25 -200.62l17.4 0c39.83,0 66.76,-8.33 80.68,-24.91 13.89,-16.58 20.95,-34.8 20.95,-54.53 0,-11.84 -2.63,-22.11 -7.8,-30.9 -5.24,-8.82 -13.43,-15.66 -24.45,-20.62 -11.02,-5.04 -28.66,-7.41 -52.9,-7.41l-33.88 0 0 138.37zm433.64 210.08c-35.86,0 -67.11,-8.04 -93.65,-24.09 -26.58,-16.05 -47.2,-39.51 -61.83,-70.27 -14.6,-30.89 -21.83,-65.76 -21.83,-104.7 0,-37.67 6.98,-71.86 20.87,-102.62 13.96,-30.9 34.51,-54.67 61.65,-71.4 27.15,-16.72 58.72,-25.12 94.79,-25.12 36,0 67.57,8.4 94.82,25.12 27.14,16.73 47.69,40.5 61.55,71.4 13.96,30.76 20.94,64.95 20.94,102.62 0,37.42 -6.91,71.47 -20.63,102.08 -13.71,30.69 -34.05,54.43 -60.98,71.54 -26.93,16.94 -58.78,25.44 -95.7,25.44zm0 -40.21c38.27,0 67.89,-14.25 88.79,-42.84 20.87,-28.49 31.36,-67.33 31.36,-116.54 0,-48.97 -10.56,-87.67 -31.64,-115.94 -21.08,-28.21 -50.56,-42.38 -88.51,-42.38 -37.95,0 -67.43,14.17 -88.59,42.38 -21.04,28.27 -31.64,66.97 -31.64,115.94 0,49.21 10.53,88.05 31.43,116.54 20.94,28.59 50.57,42.84 88.8,42.84z"/>
   <path class="fil3" d="M2442.35 888.62l219.55 0 0 645.99c0,116.68 19.95,194.03 59.6,232.2 39.68,37.95 91.06,56.83 154.34,56.83 62.33,0 111.97,-18.67 148.75,-56.09 36.75,-37.74 55.28,-109.95 55.28,-217.35l0 -661.58 191.02 0 0 647.41c0,122.1 -15.31,209.62 -46.06,262.35 -30.62,53.04 -74.91,94.89 -132.84,125.26 -58.18,30.36 -131.46,45.46 -220.26,45.46 -87.66,0 -162.6,-14.11 -225.39,-42.31 -62.82,-28.42 -112.5,-70.3 -148.92,-126.25 -36.85,-55.63 -55.07,-144.57 -55.07,-266.67l0 -645.25zm1083.84 1054.22l0 -1054.22 657.68 0 0 144.61 -438.17 0 0 320.46 359.04 0 0 145.45 -359.04 0 0 443.7 -219.51 0zm838.49 0l0 -1054.22 395.01 0c80.86,0 142.45,10.21 184.75,30.37 42.13,20.2 75.65,50.78 100.03,91.88 24.63,41.1 36.75,87.31 36.75,139.15 0,61.72 -17.76,120.05 -53.54,175.04 -35.54,54.67 -85.86,96.73 -151.13,125.68l345.37 492.1 -267.52 0 -262.35 -430.87 -120.44 0 0 430.87 -206.93 0zm206.93 -575.47l50.32 0c90.6,0 153.07,-19.74 187.44,-59.11 34.34,-39.36 51.59,-84.15 51.59,-133.97 0,-43.27 -14.1,-77.53 -42.16,-102.79 -27.96,-25.59 -84.9,-38.27 -171.08,-38.27l-76.11 0 0 334.14zm800.76 575.47l0 -1054.22 394.98 0c80.82,0 142.4,10.21 184.71,30.37 42.13,20.2 75.76,50.78 100.03,91.88 24.63,41.1 36.78,87.31 36.78,139.15 0,61.72 -17.79,120.05 -53.58,175.04 -35.46,54.67 -85.85,96.73 -151.12,125.68l345.37 492.1 -267.52 0 -262.35 -430.87 -120.44 0 0 430.87 -206.86 0zm206.86 -575.47l50.39 0c90.53,0 153.07,-19.74 187.37,-59.11 34.33,-39.36 51.59,-84.15 51.59,-133.97 0,-43.27 -14.1,-77.53 -42.06,-102.79 -27.99,-25.59 -85,-38.27 -171.11,-38.27l-76.18 0 0 334.14zm620.19 760.72l-1.52 -156.83c57.01,22.36 116.11,33.59 177.02,33.59 25.48,0 48.12,-4.86 67.64,-14.39 19.42,-9.46 35.01,-24.84 46.71,-46.2 11.72,-21.37 17.57,-65.63 17.57,-132.45l0 -923.19 220.18 0 0 899.55c0,98.72 -11.16,170.72 -33.8,215.93 -22.68,45.01 -58.36,81.22 -107.79,108.68 -49.21,27.21 -114.38,40.78 -195.66,40.78 -60.38,0 -123.98,-8.47 -190.35,-25.47z"/>
  </g>
 </g>
</svg>
