<?xml version="1.0" encoding="UTF-8"?>
<!DOCTYPE svg PUBLIC "-//W3C//DTD SVG 1.1//EN" "http://www.w3.org/Graphics/SVG/1.1/DTD/svg11.dtd">
<!-- Creator: CorelDRAW 2021 (64-Bit) -->
<svg xmlns="http://www.w3.org/2000/svg" xml:space="preserve" width="46.566mm" height="59.267mm" version="1.1" style="shape-rendering:geometricPrecision; text-rendering:geometricPrecision; image-rendering:optimizeQuality; fill-rule:evenodd; clip-rule:evenodd"
viewBox="0 0 4656.6 5926.7"
 xmlns:xlink="http://www.w3.org/1999/xlink"
 xmlns:xodm="http://www.corel.com/coreldraw/odm/2003">
 <defs>
  <style type="text/css">
   <![CDATA[
    .eyeSVG {fill:#1A1A1A}
   ]]>
  </style>
 </defs>
 <g id="Layer_x0020_1">
  <metadata id="CorelCorpID_0Corel-Layer"/>
  <g id="_2568785552880">
   <circle class="eyeSVG" cx="1828.43" cy="2514.33" r="116.63"/>
   <path class="fil4" d="M1531.56 2286.13c-13.55,12.74 -34.86,12.09 -47.6,-1.45 -12.74,-13.54 -12.09,-34.86 1.45,-47.6 52.17,-49.07 104.35,-98.15 168.39,-130.17 30.43,-15.21 62.65,-26.11 94.98,-33.58 36.4,-8.4 73.38,-12.55 108.31,-13.68 32.33,-1.05 62.67,0.51 92.01,3.38 30.59,2.99 57.43,6.93 84.26,10.87 18.42,2.69 31.17,19.81 28.48,38.23 -2.69,18.43 -19.82,31.18 -38.24,28.48 -27.61,-4.05 -55.23,-8.11 -80.83,-10.61 -26.85,-2.62 -54.47,-4.06 -83.57,-3.11 -30.61,0.99 -63.15,4.66 -95.39,12.1 -27.73,6.41 -54.91,15.53 -79.95,28.04 -54.84,27.42 -103.58,73.26 -152.3,119.1z"/>
  </g>
  <g id="_2568785552592">
   <circle class="eyeSVG" cx="2813.87" cy="2514.33" r="116.63"/>
   <path class="fil4" d="M3156.89 2237.08c13.54,12.74 14.19,34.06 1.45,47.6 -12.74,13.54 -34.05,14.19 -47.59,1.45 -48.73,-45.84 -97.47,-91.68 -152.31,-119.1 -25.04,-12.51 -52.22,-21.63 -79.94,-28.04 -32.24,-7.44 -64.79,-11.11 -95.4,-12.1 -29.1,-0.95 -56.71,0.49 -83.57,3.11 -25.6,2.5 -53.22,6.56 -80.83,10.61 -18.42,2.7 -35.54,-10.05 -38.24,-28.48 -2.69,-18.42 10.06,-35.54 28.48,-38.23 26.83,-3.94 53.67,-7.88 84.26,-10.87 29.34,-2.87 59.69,-4.43 92.01,-3.38 34.93,1.13 71.91,5.28 108.32,13.68 32.32,7.47 64.54,18.37 94.97,33.58 64.05,32.02 116.22,81.1 168.39,130.17z"/>
  </g>
 </g>
</svg>
