<?xml version="1.0" encoding="UTF-8"?>
<!DOCTYPE svg PUBLIC "-//W3C//DTD SVG 1.1//EN" "http://www.w3.org/Graphics/SVG/1.1/DTD/svg11.dtd">
<!-- Creator: CorelDRAW 2021 (64-Bit) -->
<svg xmlns="http://www.w3.org/2000/svg" xml:space="preserve" width="46.566mm" height="59.267mm" version="1.1" style="shape-rendering:geometricPrecision; text-rendering:geometricPrecision; image-rendering:optimizeQuality; fill-rule:evenodd; clip-rule:evenodd"
viewBox="0 0 4656.6 5926.7"
 xmlns:xlink="http://www.w3.org/1999/xlink"
 xmlns:xodm="http://www.corel.com/coreldraw/odm/2003">
 <defs>
  <style type="text/css">
   <![CDATA[
    .hairSVG {fill:#1F1F1F}
   ]]>
  </style>
 </defs>
 <g id="Layer_x0020_1">
  <metadata id="CorelCorpID_0Corel-Layer"/>
  <path class="hairSVG" d="M1096.08 2376.37c-14.28,31.1 -22.26,65.64 -22.26,101.96l0 257.47c0,114.01 78.59,210.55 184.27,238.14 50.19,369.16 288.74,680.59 614.86,833.5l0 163.88c-86.66,90.5 -246.09,119.44 -399.71,62.02 -85.58,-31.99 -154.93,-85.39 -200.63,-148.06 -144.89,67.5 -402.27,-13.88 -623.51,-208.8 -134.68,-118.66 -229.28,-255.92 -271.72,-379.5 -98.24,-51.93 -175.6,-165.94 -195.2,-306.42 -13.37,-95.85 2.5,-187.21 39.43,-259.99 -76.89,-111.84 -118.46,-297.94 -101.39,-504.23 19.84,-239.92 113.42,-439.87 230.6,-521.95 -16.97,-85.59 -3.72,-185.39 43.78,-279.01 51.69,-101.86 133.22,-175.33 220.35,-209.06 -11.54,-119.6 91.35,-287.23 265.09,-413.51 166.97,-121.35 350.07,-168.67 461.9,-129.67 12.49,-32.69 31.56,-63.91 57.23,-91.52 80.73,-86.85 201.74,-111.35 297.1,-68.38 257.71,-189.39 1006.33,-189.39 1264.04,0 95.36,-42.97 216.37,-18.47 297.1,68.38 25.67,27.61 44.74,58.83 57.23,91.52 111.83,-39 294.93,8.32 461.9,129.67 173.74,126.28 276.63,293.91 265.09,413.51 87.13,33.73 168.66,107.2 220.35,209.06 47.5,93.62 60.75,193.42 43.78,279.01 117.18,82.08 210.76,282.03 230.6,521.95 17.07,206.29 -24.5,392.39 -101.39,504.23 36.93,72.78 52.8,164.14 39.43,259.99 -19.6,140.48 -96.96,254.49 -195.2,306.42 -42.44,123.58 -137.04,260.84 -271.72,379.5 -221.24,194.92 -478.62,276.3 -623.51,208.8 -45.7,62.67 -115.05,116.07 -200.63,148.06 -153.63,57.42 -313.05,28.48 -399.72,-62.02l0 -163.88c326.13,-152.91 564.68,-464.33 614.87,-833.5 105.68,-27.59 184.27,-124.13 184.27,-238.14l0 -257.47c0,-36.32 -7.98,-70.86 -22.26,-101.96 -213.16,-150.24 -457.12,-542.56 -503.25,-797.68 -446.4,74.84 -1011.52,74.84 -1457.92,0 -46.13,255.12 -290.09,647.44 -503.25,797.68z"/>
 </g>
</svg>
