<?xml version="1.0" encoding="UTF-8"?>
<!DOCTYPE svg PUBLIC "-//W3C//DTD SVG 1.1//EN" "http://www.w3.org/Graphics/SVG/1.1/DTD/svg11.dtd">
<!-- Creator: CorelDRAW 2021 (64-Bit) -->
<svg xmlns="http://www.w3.org/2000/svg" xml:space="preserve" width="46.566mm" height="59.267mm" version="1.1" style="shape-rendering:geometricPrecision; text-rendering:geometricPrecision; image-rendering:optimizeQuality; fill-rule:evenodd; clip-rule:evenodd"
viewBox="0 0 4656.6 5926.7"
 xmlns:xlink="http://www.w3.org/1999/xlink"
 xmlns:xodm="http://www.corel.com/coreldraw/odm/2003">
 <defs>
  <style type="text/css">
   <![CDATA[
    .hairSVG {fill:#1F1F1F}
   ]]>
  </style>
 </defs>
 <g id="Layer_x0020_1">
  <metadata id="CorelCorpID_0Corel-Layer"/>
  <path class="hairSVG" d="M1248.23 2267.56c108.42,-79.71 216.59,-165.04 322.86,-293.76 7.01,-8.49 14.01,-17.18 21.01,-26.04 94.36,-119.52 187.31,-271.45 280,-429.15 117.61,135.03 337.64,301.75 544.66,429.15 48.97,30.13 97.21,58.07 143.19,82.87 213.26,114.99 378.03,162.49 536.68,201.48 -4.82,-4.97 -9.78,-10.23 -14.9,-15.79 -47.32,-51.43 -107.88,-129.1 -172.99,-215.75 98.15,76.48 189.73,145.42 264.96,195.58 99.16,66.1 169.92,99.58 234.68,126.16l0 506.36c0,431.62 -256.58,806.21 -624.75,978.79l0 244.75c39.07,2.16 79.02,4.74 120.48,7.77 186.16,13.61 402.6,36.26 549.83,46.33 147.23,10.06 225.24,7.55 299.48,-33.35 74.25,-40.9 144.72,-120.17 208.26,-246.01 63.55,-125.84 120.18,-298.23 127.73,-555.57 7.55,-257.33 -33.98,-599.6 -139.68,-951.95 -105.7,-352.33 -275.58,-714.74 -392.61,-950.68 -117.02,-235.95 -181.2,-345.42 -356.21,-433.19 -175,-87.77 -460.84,-153.84 -722.42,-172.39 -261.58,-18.57 -498.91,10.37 -675.46,55.24 -176.55,44.86 -292.32,105.64 -378.64,158.37 -86.32,52.73 -143.19,97.43 -245.36,280.44 -102.17,183 -249.63,504.33 -371.78,821.26 -122.15,316.92 -218.99,629.45 -245.4,927.66 -26.41,298.22 17.61,582.13 78.13,774.71 60.53,192.58 137.56,293.82 214.59,348.84 77.03,55.02 154.06,63.83 310.32,45.12 156.27,-18.71 391.76,-64.93 611.84,-92.44 32.43,-4.05 64.51,-7.7 96.24,-10.98l0 -263.93c-368.17,-172.58 -624.74,-547.18 -624.74,-978.79l0 -561.11z"/>
 </g>
</svg>
