<?xml version="1.0" encoding="UTF-8"?>
<!DOCTYPE svg PUBLIC "-//W3C//DTD SVG 1.1//EN" "http://www.w3.org/Graphics/SVG/1.1/DTD/svg11.dtd">
<!-- Creator: CorelDRAW 2021 (64-Bit) -->
<svg xmlns="http://www.w3.org/2000/svg" xml:space="preserve" width="46.566mm" height="59.267mm" version="1.1" style="shape-rendering:geometricPrecision; text-rendering:geometricPrecision; image-rendering:optimizeQuality; fill-rule:evenodd; clip-rule:evenodd"
viewBox="0 0 4656.6 5926.7"
 xmlns:xlink="http://www.w3.org/1999/xlink"
 xmlns:xodm="http://www.corel.com/coreldraw/odm/2003">
 <defs>
  <style type="text/css">
   <![CDATA[
    .hairSVG {fill:#1F1F1F}
   ]]>
  </style>
   <clipPath id="id0">
    <rect x="26869.08" y="-6509.28" width="18626.66" height="19755.56"/>
   </clipPath>
   <clipPath id="id1">
    <rect x="50021.4" y="-6914.43" width="18626.66" height="19755.56"/>
   </clipPath>
   <clipPath id="id2">
    <rect x="-28258.12" y="-2199.7" width="18626.66" height="19755.56"/>
   </clipPath>
   <clipPath id="id3">
    <rect x="26840.06" y="-6509.28" width="18626.66" height="19755.56"/>
   </clipPath>
 </defs>
 <g id="Layer_x0020_1">
  <metadata id="CorelCorpID_0Corel-Layer"/>
  <path class="hairSVG" d="M3328.33 2232.42c59,34.35 122.71,61.48 189.93,80.19 40.06,43.81 64.58,102.05 64.58,165.72l0 247 0 10.47c0,113.98 -78.55,210.51 -184.19,238.13 -50.19,369.19 -288.78,680.64 -614.95,833.54l0 362.8 94.06 0c124.33,-38.56 235.61,-106.8 325.56,-196.44 83.26,24.95 171.49,38.42 262.87,38.42 504.98,0 914.35,-409.37 914.35,-914.34 0,-281.4 -127.16,-533.06 -327.11,-700.79 110.04,-136.44 175.96,-309.95 175.96,-498.88 0,-416.24 -319.77,-757.74 -727.05,-792.37 -94.3,-322.17 -391.95,-557.49 -744.6,-557.49 -158.79,0 -306.41,47.74 -429.37,129.61 -122.96,-81.87 -270.58,-129.61 -429.37,-129.61 -352.66,0 -650.3,235.32 -744.6,557.49 -407.28,34.63 -727.06,376.13 -727.06,792.37 0,188.93 65.93,362.44 175.97,498.88 -199.95,167.73 -327.11,419.39 -327.11,700.79 0,504.97 409.37,914.34 914.35,914.34 91.38,0 179.61,-13.47 262.87,-38.42 89.95,89.64 201.23,157.88 325.56,196.44l94.06 0 0 -362.8c-326.17,-152.9 -564.76,-464.35 -614.95,-833.54 -105.64,-27.62 -184.19,-124.15 -184.19,-238.13l0 -10.47 0 -247c0,-63.67 24.52,-121.91 64.58,-165.72 67.22,-18.71 130.93,-45.84 189.93,-80.19 213.67,-124.42 365.44,-343.49 397.86,-599.77 95.42,18.83 210.94,33.34 339.19,41.99l0.92 1.82c169.44,10.14 354.54,10.14 523.98,0l0.92 -1.82c128.25,-8.65 243.76,-23.16 339.19,-41.99 32.42,256.28 184.18,475.35 397.86,599.77z"/>
 </g>
</svg>
