<?xml version="1.0" encoding="UTF-8"?>
<!DOCTYPE svg PUBLIC "-//W3C//DTD SVG 1.1//EN" "http://www.w3.org/Graphics/SVG/1.1/DTD/svg11.dtd">
<!-- Creator: CorelDRAW 2021 (64-Bit) -->
<svg xmlns="http://www.w3.org/2000/svg" xml:space="preserve" width="46.566mm" height="59.267mm" version="1.1" style="shape-rendering:geometricPrecision; text-rendering:geometricPrecision; image-rendering:optimizeQuality; fill-rule:evenodd; clip-rule:evenodd"
viewBox="0 0 4656.6 5926.7"
 xmlns:xlink="http://www.w3.org/1999/xlink"
 xmlns:xodm="http://www.corel.com/coreldraw/odm/2003">
 <defs>
  <style type="text/css">
   <![CDATA[
    .hairSVG {fill:#1F1F1F}
   ]]>
  </style>
 </defs>
 <g id="Layer_x0020_1">
  <metadata id="CorelCorpID_0Corel-Layer"/>
  <path class="hairSVG" d="M1718.55 1273.58c425.75,42.26 831.51,34.4 1217.26,0 26.26,-16.68 53.89,-36.04 85.95,-64.14 46.4,-40.67 102.08,-99.63 132.1,-172.77 30.02,-73.15 34.39,-160.48 10.64,-245.09 -19.99,-71.26 -59.93,-140.58 -103.02,-209.6 -5.35,5.91 -10.95,11.82 -16.8,17.72 -85.7,86.52 -225.98,172.22 -331.88,195.42 -105.9,23.2 -177.41,-16.1 -256.56,-39.57 -79.15,-23.47 -165.94,-31.12 -241.55,-18.83 -75.6,12.28 -140.01,44.48 -190.5,93.61 -50.5,49.13 -87.07,115.18 -134.29,154.75 -47.21,39.58 -105.07,52.68 -142.47,78.88 -37.39,26.2 -54.31,65.51 -53.77,107.54 0.43,32.8 11.49,67.25 24.89,102.08z"/>
 </g>
</svg>
