<?xml version="1.0" encoding="UTF-8"?>
<!DOCTYPE svg PUBLIC "-//W3C//DTD SVG 1.1//EN" "http://www.w3.org/Graphics/SVG/1.1/DTD/svg11.dtd">
<!-- Creator: CorelDRAW 2021 (64-Bit) -->
<svg xmlns="http://www.w3.org/2000/svg" xml:space="preserve" width="46.566mm" height="59.267mm" version="1.1" style="shape-rendering:geometricPrecision; text-rendering:geometricPrecision; image-rendering:optimizeQuality; fill-rule:evenodd; clip-rule:evenodd"
viewBox="0 0 4656.6 5926.7"
 xmlns:xlink="http://www.w3.org/1999/xlink"
 xmlns:xodm="http://www.corel.com/coreldraw/odm/2003">
 <defs>
  <style type="text/css">
   <![CDATA[
    .fil0 {fill:#1A1A1A}
    .fil3 {fill:#92D9FF}
    .fil2 {fill:#FF0066}
    .fil1 {fill:white}
   ]]>
  </style>
 </defs>
 <g id="Layer_x0020_1">
  <metadata id="CorelCorpID_0Corel-Layer"/>
  <g id="_1937983272816">
   <path class="fil0" d="M2328.3 3137.85c-67.37,2.67 -119.24,8.02 -171.37,42.24 -52.14,34.22 -104.54,97.32 -132.61,175.66 -28.08,78.33 -31.82,171.91 -19.79,216.02 12.03,44.12 39.84,38.77 90.9,30.48 51.07,-8.28 125.4,-19.51 189.03,-25.13 14.97,-1.32 29.35,-2.33 43.84,-3.1 14.5,0.77 28.88,1.78 43.85,3.1 63.63,5.62 137.96,16.85 189.02,25.13 51.07,8.29 78.87,13.64 90.9,-30.48 12.03,-44.11 8.29,-137.69 -19.78,-216.02 -28.07,-78.34 -80.48,-141.44 -132.61,-175.66 -52.14,-34.22 -104,-39.57 -171.38,-42.24z"/>
   <path class="fil1" d="M2328.3 3137.85c-67.37,2.67 -119.24,8.02 -171.37,42.24 -16.15,10.6 -32.32,23.97 -47.78,39.7 7.69,2.89 16,4.47 24.67,4.47l388.96 0c8.67,0 16.99,-1.58 24.68,-4.47 -15.47,-15.73 -31.64,-29.1 -47.78,-39.7 -52.14,-34.22 -104,-39.57 -171.38,-42.24z"/>
   <path class="fil2" d="M2056.78 3607.58c11.06,-0.78 23.88,-2.93 38.65,-5.33 51.07,-8.28 125.4,-19.51 189.03,-25.13 14.97,-1.32 29.35,-2.33 43.84,-3.1 14.5,0.77 28.88,1.78 43.85,3.1 63.63,5.62 137.96,16.85 189.02,25.13 14.77,2.4 27.6,4.55 38.66,5.33 -31.24,-100.2 -163.99,-214.46 -271.53,-142.29 -107.53,-72.17 -240.29,42.09 -271.52,142.29z"/>
   <path class="fil3" d="M1760.8 2668.82c-35.7,47.82 -57.22,81.98 -72.36,113.3 -16.49,34.09 -25.43,64.83 -16.77,93.33 28.92,95.16 149.34,95.16 178.26,0 8.66,-28.5 -0.28,-59.24 -16.77,-93.33 -15.15,-31.32 -36.67,-65.48 -72.36,-113.3z"/>
  </g>
 </g>
</svg>
