<?xml version="1.0" encoding="UTF-8"?>
<!DOCTYPE svg PUBLIC "-//W3C//DTD SVG 1.1//EN" "http://www.w3.org/Graphics/SVG/1.1/DTD/svg11.dtd">
<!-- Creator: CorelDRAW 2021 (64-Bit) -->
<svg xmlns="http://www.w3.org/2000/svg" xml:space="preserve" width="46.566mm" height="59.267mm" version="1.1" style="shape-rendering:geometricPrecision; text-rendering:geometricPrecision; image-rendering:optimizeQuality; fill-rule:evenodd; clip-rule:evenodd"
viewBox="0 0 4656.6 5926.7"
 xmlns:xlink="http://www.w3.org/1999/xlink"
 xmlns:xodm="http://www.corel.com/coreldraw/odm/2003">
 <defs>
  <style type="text/css">
   <![CDATA[
    .mouth {fill:#373435;fill-rule:nonzero}
   ]]>
  </style>
 </defs>
 <g id="Layer_x0020_1">
  <metadata id="CorelCorpID_0Corel-Layer"/>
  <!-- boca -->
  <path class="mouth" d="M2087.46 3303.29c-9.39,-16.02 -4.02,-36.62 12,-46.02 16.02,-9.39 36.62,-4.02 46.01,12 9.66,16.5 25.09,30.42 44.27,41.65 38.58,22.59 91.07,33.89 144.07,33.89l0 -0.14c53.15,0 105.64,-11.25 144.08,-33.75 19.18,-11.23 34.6,-25.14 44.27,-41.65 9.39,-16.02 29.99,-21.39 46.01,-12 16.02,9.4 21.39,30 12,46.02 -15.78,26.94 -39.49,48.8 -68.27,65.65 -49.24,28.82 -114,43.24 -178.09,43.24l0 -0.13c-64.22,-0.01 -128.99,-14.38 -178.08,-43.11 -28.79,-16.85 -52.5,-38.71 -68.27,-65.65z"/>
 </g>
</svg>
