<?xml version="1.0" encoding="UTF-8"?>
<!DOCTYPE svg PUBLIC "-//W3C//DTD SVG 1.1//EN" "http://www.w3.org/Graphics/SVG/1.1/DTD/svg11.dtd">
<!-- Creator: CorelDRAW 2021 (64-Bit) -->
<svg xmlns="http://www.w3.org/2000/svg" xml:space="preserve" width="46.566mm" height="59.267mm" version="1.1" style="shape-rendering:geometricPrecision; text-rendering:geometricPrecision; image-rendering:optimizeQuality; fill-rule:evenodd; clip-rule:evenodd"
viewBox="0 0 4656.6 5926.7"
 xmlns:xlink="http://www.w3.org/1999/xlink"
 xmlns:xodm="http://www.corel.com/coreldraw/odm/2003">
 <defs>
  <style type="text/css">
   <![CDATA[
    .fil3 {fill:white}
    .fil0 {fill:#373435;fill-rule:nonzero}
    .fil1 {fill:#473729;fill-rule:nonzero}
    .fil2 {fill:#FF0066;fill-rule:nonzero}
   ]]>
  </style>
 </defs>
 <g id="Layer_x0020_1">
  <metadata id="CorelCorpID_0Corel-Layer"/>
  <path class="fil0" d="M2087.46 3303.29c-9.39,-16.02 -4.02,-36.62 12,-46.02 16.02,-9.39 36.62,-4.02 46.01,12 9.66,16.5 25.09,30.42 44.27,41.65 38.58,22.59 91.07,33.89 144.07,33.89l0 -0.14c53.15,0 105.64,-11.25 144.08,-33.75 19.18,-11.23 34.6,-25.14 44.27,-41.65 9.39,-16.02 29.99,-21.39 46.01,-12 16.02,9.4 21.39,30 12,46.02 -15.78,26.94 -39.49,48.8 -68.27,65.65 -49.24,28.82 -114,43.24 -178.09,43.24l0 -0.13c-64.22,-0.01 -128.99,-14.38 -178.08,-43.11 -28.79,-16.85 -52.5,-38.71 -68.27,-65.65z"/>
  <g id="_1937976834736">
   <path class="fil1" d="M2663.22 3236.02c0,184.96 -149.95,334.91 -334.92,334.91 -184.97,0 -334.92,-149.95 -334.92,-334.91 0,-21.25 17.23,-38.47 38.47,-38.47l592.9 0c21.25,0 38.47,17.22 38.47,38.47z"/>
   <g>
    <path class="fil2" d="M2354.06 3569.96l-0.21 0.01 -0.19 0.02 -0.4 0.03 -2.8 0.19 -0.39 0.03 -0.4 0.02 -0.05 0.01 -0.35 0.02c-1.28,0.08 -2.56,0.15 -3.84,0.21l-0.04 0.01 -0.13 0 -0.4 0.02 -3.22 0.14 -0.4 0.02 -0.11 0 -0.29 0.01c-1.32,0.05 -2.65,0.09 -3.97,0.13l-0.07 0c-2.82,0.07 -5.66,0.1 -8.5,0.1 -2.71,0 -5.41,-0.03 -8.1,-0.09l-0.4 -0.01 -0.07 0c-1.32,-0.04 -2.65,-0.08 -3.97,-0.13l-0.29 -0.01 -0.11 0 -0.4 -0.02 -3.22 -0.14 -0.4 -0.02 -0.13 0 -0.27 -0.02 -0.4 -0.02 -2.8 -0.16 -0.4 -0.02 -0.36 -0.02 -0.04 -0.01 -0.4 -0.02 -0.4 -0.03 -2.8 -0.19 -0.4 -0.03 -0.19 -0.02 -0.2 -0.01c-81.44,-6.19 -154.72,-41.51 -209.47,-95.56 20.38,-41.92 74.24,-71.87 137.47,-71.87 37.59,0 71.85,10.58 97.75,27.96 25.9,-17.38 60.17,-27.96 97.75,-27.96 63.24,0 117.09,29.95 137.48,71.87 -54.77,54.04 -128.05,89.36 -209.47,95.56zm-34.33 0.87c-1.32,-0.04 -2.65,-0.08 -3.97,-0.13l3.97 0.13z"/>
   </g>
   <path class="fil3" d="M2041.47 3197.55l577.39 0 0 28.18c0,42.32 -34.62,76.94 -76.94,76.94l-423.51 0c-42.32,0 -76.94,-34.62 -76.94,-76.94l0 -28.18z"/>
  </g>
 </g>
</svg>
