<?xml version="1.0" encoding="UTF-8"?>
<!DOCTYPE svg PUBLIC "-//W3C//DTD SVG 1.1//EN" "http://www.w3.org/Graphics/SVG/1.1/DTD/svg11.dtd">
<!-- Creator: CorelDRAW 2021 (64-Bit) -->
<svg xmlns="http://www.w3.org/2000/svg" xml:space="preserve" width="46.566mm" height="59.267mm" version="1.1" style="shape-rendering:geometricPrecision; text-rendering:geometricPrecision; image-rendering:optimizeQuality; fill-rule:evenodd; clip-rule:evenodd"
viewBox="0 0 4656.6 5926.7"
 xmlns:xlink="http://www.w3.org/1999/xlink"
 xmlns:xodm="http://www.corel.com/coreldraw/odm/2003">
 <defs>
  <style type="text/css">
   <![CDATA[
    .skinSVG {fill:#FFCC99}
    .shadowSVG {fill:#E1AD7A}
   ]]>
  </style>
 </defs>
 <g id="Layer_x0020_1">
  <metadata id="CorelCorpID_0Corel-Layer"/>
  <path class="fil0" d="M1711.34 4170.27l1233.92 0c542.46,0 1288,531.93 1288,1350.1l0 194.6 -3809.92 0 0 -194.6c0,-818.17 745.54,-1350.1 1288,-1350.1z"/>
  <path class="skinSVG" d="M2328.3 4603.6c327.77,-10.39 599.01,-150.7 599.01,-433.33l-143.67 0 0 -362.84c326.12,-152.9 564.67,-464.33 614.87,-833.49 105.67,-27.6 184.26,-124.14 184.26,-238.15l0 -257.47c0,-110.43 -73.73,-204.46 -174.39,-235.34l0 -89.37c0,-594.04 -486.03,-1080.08 -1080.08,-1080.08l0 0c-594.05,0 -1080.08,486.04 -1080.08,1080.08l0 89.37c-100.66,30.88 -174.39,124.91 -174.39,235.34l0 257.47c0,114.01 78.59,210.55 184.26,238.15 50.2,369.16 288.74,680.59 614.87,833.49l0 362.84 -143.67 0c0,282.63 271.24,422.94 599.01,433.33z"/>

  <!-- sombra -->
  <path class="shadowSVG" d="M2328.3 3908.75c-162.44,0 -316.79,-36.34 -455.34,-101.3l0 173.2c138.55,64.96 292.9,101.3 455.34,101.3 162.44,0 316.79,-36.34 455.34,-101.29l0 -173.21c-138.55,64.96 -292.9,101.3 -455.34,101.3z"/>
  <path class="shadowSVG" d="M2554.88 2852.53c-15.08,91.57 -112.28,162.22 -229.95,162.22 -117.68,0 -214.88,-70.65 -229.96,-162.22l459.91 0z"/>
 </g>
</svg>
